<svg xmlns="http://www.w3.org/2000/svg" width="16" height="16" viewBox="0 0 16 16" fill="none">
  <path d="M2 2.5A1.5 1.5 0 0 1 3.5 1h5.586a1 1 0 0 1 .707.293l2.414 2.414a1 1 0 0 1 .293.707V12.5A1.5 1.5 0 0 1 11 14H3.5A1.5 1.5 0 0 1 2 12.5v-10z" stroke="currentColor" stroke-width="1.2" fill="none"/>
  <path d="M5 6h5M5 8.5h5M5 11h3" stroke="currentColor" stroke-width="1.1" stroke-linecap="round"/>
  <circle cx="12.5" cy="11.5" r="2.8" fill="white" stroke="currentColor" stroke-width="1.1"/>
  <path d="M12.5 10v3M11 11.5h3" stroke="currentColor" stroke-width="1.1" stroke-linecap="round"/>
</svg>
